<?xml version="1.0" encoding="iso-8859-1"?>
<!-- Generator: Adobe Illustrator 19.0.0, SVG Export Plug-In . SVG Version: 6.00 Build 0)  -->
<svg version="1.1" id="Capa_1" xmlns="http://www.w3.org/2000/svg" xmlns:xlink="http://www.w3.org/1999/xlink" x="0px" y="0px"
	 viewBox="0 0 512 512" style="enable-background:new 0 0 512 512;" xml:space="preserve">
<g>
	<path style="fill:#556080;" d="M256,0c-19.5,0-35.31,15.81-35.31,35.31v17.655h70.621V35.31C291.31,15.81,275.5,0,256,0z"/>
	<path style="fill:#556080;" d="M150.069,414.897l-40.625,74.187C103.865,499.438,111.369,512,123.127,512
		c5.72,0,10.973-3.143,13.683-8.174l48.569-88.929H150.069z"/>
	<path style="fill:#556080;" d="M361.931,414.897h-35.31l48.561,88.929c2.71,5.032,7.971,8.174,13.683,8.174
		c11.767,0,19.262-12.562,13.692-22.916L361.931,414.897z"/>
	<path style="fill:#556080;" d="M238.345,423.724v72.73c0,8.589,6.956,15.545,15.545,15.545h4.22
		c8.589,0,15.545-6.956,15.545-15.545v-72.73H238.345z"/>
</g>
<g>
	<rect x="17.655" y="388.414" style="fill:#7383BF;" width="476.69" height="44.138"/>
	<rect x="105.931" y="35.31" style="fill:#7383BF;" width="300.138" height="44.138"/>
</g>
<rect y="70.621" style="fill:#F2ECBF;" width="512" height="326.621"/>
<g>
	<path style="fill:#C4BC90;" d="M141.241,185.379H61.793c-4.873,0-8.828-3.955-8.828-8.828c0-4.873,3.955-8.828,8.828-8.828h79.448
		c4.873,0,8.828,3.955,8.828,8.828C150.069,181.425,146.114,185.379,141.241,185.379z"/>
	<path style="fill:#C4BC90;" d="M88.276,220.69H61.793c-4.873,0-8.828-3.955-8.828-8.828c0-4.873,3.955-8.828,8.828-8.828h26.483
		c4.873,0,8.828,3.955,8.828,8.828C97.103,216.735,93.149,220.69,88.276,220.69z"/>
	<path style="fill:#C4BC90;" d="M141.241,220.69h-17.655c-4.873,0-8.828-3.955-8.828-8.828c0-4.873,3.955-8.828,8.828-8.828h17.655
		c4.873,0,8.828,3.955,8.828,8.828C150.069,216.735,146.114,220.69,141.241,220.69z"/>
	<path style="fill:#C4BC90;" d="M123.586,150.069H61.793c-4.873,0-8.828-3.955-8.828-8.828s3.955-8.828,8.828-8.828h61.793
		c4.873,0,8.828,3.955,8.828,8.828S128.459,150.069,123.586,150.069z"/>
	<path style="fill:#C4BC90;" d="M441.379,308.966h-70.621c-4.873,0-8.828-3.955-8.828-8.828c0-4.873,3.955-8.828,8.828-8.828h70.621
		c4.873,0,8.828,3.955,8.828,8.828C450.207,305.011,446.252,308.966,441.379,308.966z"/>
	<path style="fill:#C4BC90;" d="M406.069,344.276h-35.31c-4.873,0-8.828-3.955-8.828-8.828s3.955-8.828,8.828-8.828h35.31
		c4.873,0,8.828,3.955,8.828,8.828S410.942,344.276,406.069,344.276z"/>
	<path style="fill:#C4BC90;" d="M441.379,229.517h-70.621c-4.873,0-8.828-3.955-8.828-8.828c0-4.873,3.955-8.828,8.828-8.828h70.621
		c4.873,0,8.828,3.955,8.828,8.828C450.207,225.562,446.252,229.517,441.379,229.517z"/>
	<path style="fill:#C4BC90;" d="M406.069,264.828h-35.31c-4.873,0-8.828-3.955-8.828-8.828s3.955-8.828,8.828-8.828h35.31
		c4.873,0,8.828,3.955,8.828,8.828S410.942,264.828,406.069,264.828z"/>
	<path style="fill:#C4BC90;" d="M441.379,150.069h-70.621c-4.873,0-8.828-3.955-8.828-8.828s3.955-8.828,8.828-8.828h70.621
		c4.873,0,8.828,3.955,8.828,8.828S446.252,150.069,441.379,150.069z"/>
	<path style="fill:#C4BC90;" d="M406.069,185.379h-35.31c-4.873,0-8.828-3.955-8.828-8.828c0-4.873,3.955-8.828,8.828-8.828h35.31
		c4.873,0,8.828,3.955,8.828,8.828C414.897,181.425,410.942,185.379,406.069,185.379z"/>
	<path style="fill:#C4BC90;" d="M150.069,344.276c-2.26,0-4.52-0.865-6.241-2.586c-3.452-3.452-3.452-9.031,0-12.482l44.138-44.138
		c3.452-3.452,9.031-3.452,12.482,0l37.561,37.553l73.225-81.355c3.257-3.619,8.845-3.928,12.465-0.653
		c3.628,3.257,3.919,8.836,0.653,12.465l-79.448,88.276c-1.615,1.801-3.911,2.86-6.329,2.922c-2.481,0.079-4.767-0.865-6.471-2.578
		l-37.897-37.906l-37.897,37.897C154.589,343.411,152.329,344.276,150.069,344.276z"/>
	<path style="fill:#C4BC90;" d="M150.069,344.276c-1.933,0-3.884-0.636-5.508-1.933l-38.63-30.897L67.31,342.343
		c-3.805,3.037-9.366,2.436-12.403-1.377c-3.046-3.805-2.428-9.366,1.377-12.403l44.138-35.31c3.222-2.578,7.804-2.578,11.026,0
		l44.138,35.31c3.814,3.046,4.423,8.598,1.377,12.403C155.215,343.146,152.647,344.276,150.069,344.276z"/>
	<path style="fill:#C4BC90;" d="M317.793,256h-44.138c-4.873,0-8.828-3.955-8.828-8.828c0-4.873,3.955-8.828,8.828-8.828h44.138
		c4.873,0,8.828,3.955,8.828,8.828C326.621,252.045,322.666,256,317.793,256z"/>
	<path style="fill:#C4BC90;" d="M317.793,300.138c-4.873,0-8.828-3.955-8.828-8.828v-44.138c0-4.873,3.955-8.828,8.828-8.828
		c4.873,0,8.828,3.955,8.828,8.828v44.138C326.621,296.183,322.666,300.138,317.793,300.138z"/>
	<path style="fill:#C4BC90;" d="M220.69,229.517c-29.21,0-52.966-23.755-52.966-52.966s23.755-52.966,52.966-52.966
		s52.966,23.755,52.966,52.966S249.9,229.517,220.69,229.517z M220.69,141.241c-19.474,0-35.31,15.837-35.31,35.31
		s15.837,35.31,35.31,35.31S256,196.025,256,176.552S240.163,141.241,220.69,141.241z"/>
</g>
<g>
</g>
<g>
</g>
<g>
</g>
<g>
</g>
<g>
</g>
<g>
</g>
<g>
</g>
<g>
</g>
<g>
</g>
<g>
</g>
<g>
</g>
<g>
</g>
<g>
</g>
<g>
</g>
<g>
</g>
</svg>
