<?xml version="1.0" encoding="iso-8859-1"?>
<!-- Generator: Adobe Illustrator 19.0.0, SVG Export Plug-In . SVG Version: 6.00 Build 0)  -->
<svg version="1.1" id="Capa_1" xmlns="http://www.w3.org/2000/svg" xmlns:xlink="http://www.w3.org/1999/xlink" x="0px" y="0px"
	 viewBox="0 0 512 512" style="enable-background:new 0 0 512 512;" xml:space="preserve">
<path style="fill:#B02721;" d="M119.172,0c-2.993,0-5.923,0.247-8.828,0.618c-19.8,0.097-40.28,16.578-50.485,32.477
	c-8.81,13.727-11.308,28.54-11.308,44.535c0,20.215,0,40.439,0,60.654c0,31.047,0,62.093,0,93.131c0,29.705,0,59.41,0,89.106
	c0,16.199,0,32.388,0,48.587v54.44c0,9.807,8.024,17.832,17.823,17.832h114.591h52.966h220.69v-88.276V0H119.172z"/>
<path style="fill:#F2ECBF;" d="M119.172,353.103c-38.841,0-70.621,31.779-70.621,70.621s31.779,70.621,70.621,70.621h61.793h52.966
	h229.517V353.103H119.172z"/>
<path style="fill:#C6BF95;" d="M119.172,388.414c-19.474,0-35.31,15.837-35.31,35.31c0,19.474,15.837,35.31,35.31,35.31h61.793
	v-35.31h52.966v35.31h229.517v-70.621H119.172z"/>
<path style="fill:#DD352E;" d="M48.552,70.621v353.103c0-38.841,31.779-70.621,70.621-70.621h344.276V0H119.172
	C80.331,0,48.552,31.779,48.552,70.621z"/>
<g>
	<path style="fill:#968F6B;" d="M180.966,432.552h-61.793c-4.873,0-8.828-3.955-8.828-8.828c0-4.873,3.955-8.828,8.828-8.828h61.793
		c4.873,0,8.828,3.955,8.828,8.828C189.793,428.597,185.838,432.552,180.966,432.552z"/>
	<path style="fill:#968F6B;" d="M286.897,432.552h-52.966c-4.873,0-8.828-3.955-8.828-8.828c0-4.873,3.955-8.828,8.828-8.828h52.966
		c4.873,0,8.828,3.955,8.828,8.828C295.724,428.597,291.769,432.552,286.897,432.552z"/>
</g>
<path style="fill:#B02721;" d="M110.345,0.618c-34.71,4.387-61.793,34.154-61.793,70.003v353.103
	c0-35.849,27.083-65.615,61.793-70.003V0.618z"/>
<g>
	<path style="fill:#871818;" d="M48.552,131.178v54.201c0-35.849,27.083-65.615,61.793-70.003V61.175
		C75.635,65.562,48.552,95.329,48.552,131.178z"/>
	<path style="fill:#871818;" d="M48.552,273.037v54.201c0-35.849,27.083-65.615,61.793-70.003v-54.201
		C75.635,207.422,48.552,237.188,48.552,273.037z"/>
</g>
<polygon style="fill:#366DB6;" points="233.931,512 207.448,485.517 180.966,512 180.966,414.897 233.931,414.897 "/>
<circle style="fill:#FFFFFF;" cx="286.897" cy="176.552" r="132.414"/>
<g>
	<path style="fill:#7383BF;" d="M233.931,220.69c-2.26,0-4.52-0.865-6.241-2.586l-35.31-35.31c-3.452-3.452-3.452-9.031,0-12.482
		L227.69,135c3.443-3.452,9.039-3.452,12.482,0c3.452,3.452,3.452,9.031,0,12.482l-29.069,29.069l29.069,29.069
		c3.452,3.452,3.452,9.031,0,12.482C238.451,219.825,236.191,220.69,233.931,220.69z"/>
	<path style="fill:#7383BF;" d="M339.862,220.69c-2.26,0-4.52-0.865-6.241-2.586c-3.452-3.452-3.452-9.031,0-12.482l29.069-29.069
		l-29.069-29.069c-3.452-3.452-3.452-9.031,0-12.482c3.443-3.452,9.039-3.452,12.482,0l35.31,35.31
		c3.452,3.452,3.452,9.031,0,12.482l-35.31,35.31C344.382,219.825,342.122,220.69,339.862,220.69z"/>
	<path style="fill:#7383BF;" d="M269.241,238.345c-0.856,0-1.73-0.132-2.595-0.397c-4.661-1.43-7.274-6.374-5.844-11.034
		l35.31-114.759c1.439-4.661,6.365-7.274,11.034-5.844c4.661,1.43,7.274,6.374,5.844,11.034l-35.31,114.759
		C276.506,235.908,273.02,238.345,269.241,238.345z"/>
</g>
<path style="fill:#968F6B;" d="M463.448,414.897H419.31c-4.873,0-8.828,3.955-8.828,8.828c0,4.873,3.955,8.828,8.828,8.828h44.138
	V414.897z"/>
<g>
</g>
<g>
</g>
<g>
</g>
<g>
</g>
<g>
</g>
<g>
</g>
<g>
</g>
<g>
</g>
<g>
</g>
<g>
</g>
<g>
</g>
<g>
</g>
<g>
</g>
<g>
</g>
<g>
</g>
</svg>
