<?xml version="1.0" encoding="iso-8859-1"?>
<!-- Generator: Adobe Illustrator 19.0.0, SVG Export Plug-In . SVG Version: 6.00 Build 0)  -->
<svg version="1.1" id="Capa_1" xmlns="http://www.w3.org/2000/svg" xmlns:xlink="http://www.w3.org/1999/xlink" x="0px" y="0px"
	 viewBox="0 0 512 512" style="enable-background:new 0 0 512 512;" xml:space="preserve">
<path style="fill:#2EDDFD;" d="M458.58,278.22c-0.73,2.54-1.5,5.09-2.29,7.66c-2.19,7.11-4.51,14.09-6.96,20.93
	C416.911,397.429,359.686,470.879,271,507.25c-3.23,1.33-6.5,2.6-9.8,3.82c-3.347,1.235-7.026,1.245-10.4,0
	c-3.3-1.22-6.57-2.49-9.8-3.82C152.309,470.876,95.087,397.421,62.67,306.81c-2.45-6.84-4.77-13.82-6.96-20.93
	c-0.79-2.57-1.56-5.12-2.29-7.66c-23.56-80.91-22.46-149.77-22.4-152.76c0.12-6.02,3.83-11.38,9.42-13.62l40.57-16.23V40.99
	c0-6.41,4.07-12.11,10.14-14.19C137.77,10.81,189.27,1.7,241,0.22C246,0.07,251,0,256,0c5,0,10,0.07,15,0.22
	C322.73,1.7,374.23,10.81,420.85,26.8c6.07,2.08,10.14,7.78,10.14,14.19v54.62l40.57,16.23c5.59,2.24,9.3,7.6,9.42,13.62
	C481.04,128.45,482.14,197.31,458.58,278.22z"/>
<path style="fill:#29AFE0;" d="M480.98,125.46c-0.12-6.02-3.83-11.38-9.42-13.62l-40.57-16.23V40.99c0-6.41-4.07-12.11-10.14-14.19
	C374.23,10.81,322.73,1.7,271,0.22C266,0.07,261,0,256,0v512c1.763,0,3.523-0.311,5.2-0.929c3.3-1.22,6.57-2.49,9.8-3.82
	c88.686-36.371,145.911-109.821,178.33-200.44c2.45-6.84,4.77-13.82,6.96-20.93c0.79-2.57,1.56-5.12,2.29-7.66
	C482.14,197.31,481.04,128.45,480.98,125.46z"/>
<path style="fill:#268DC6;" d="M370.96,243.95c-1.74-0.68-3.6-1.03-5.46-1.03H271V0.22C266,0.07,261,0,256,0c-5,0-10,0.07-15,0.22
	v242.7h-94.5c-1.86,0-3.72,0.35-5.46,1.03l-87.62,34.27l9.25,28.59l86.66-33.89H241v234.33c3.23,1.33,6.5,2.6,9.8,3.82
	c3.347,1.235,7.026,1.245,10.4,0c3.3-1.22,6.57-2.49,9.8-3.82V272.92h91.67l86.66,33.89c2.45-6.84,4.77-13.82,6.96-20.93
	c0.79-2.57,1.56-5.12,2.29-7.66L370.96,243.95z"/>
<path style="fill:#1474AF;" d="M370.96,243.95c-1.74-0.68-3.6-1.03-5.46-1.03H271V0.22C266,0.07,261,0,256,0v512
	c1.757,0,3.516-0.308,5.2-0.929c3.3-1.22,6.57-2.49,9.8-3.82V272.92h91.67l86.66,33.89c2.45-6.84,4.77-13.82,6.96-20.93
	c0.79-2.57,1.56-5.12,2.29-7.66L370.96,243.95z"/>
<path style="fill:#FFF16C;" d="M387.916,164.547l-36.928-14.772V102.46c0-7.209-5.128-13.398-12.211-14.738
	c-54.15-10.246-111.404-10.246-165.555,0c-7.083,1.34-12.211,7.529-12.211,14.738v47.315l-36.954,14.783
	c-6.341,2.536-10.168,9.036-9.31,15.812c12.003,94.751,50.133,195.426,133.966,242.012c2.266,1.26,4.775,1.889,7.286,1.889
	c2.51,0,5.021-0.63,7.286-1.889c83.817-46.576,121.956-147.246,133.94-242.025C398.083,173.581,394.256,167.083,387.916,164.547z"/>
<g>
	<path style="fill:#FDB92C;" d="M387.916,164.547l-36.928-14.772V102.46c0-7.209-5.128-13.398-12.211-14.738
		c-27.075-5.123-54.926-7.685-82.777-7.685V424.27c2.51,0,5.021-0.63,7.286-1.889c83.817-46.576,121.956-147.246,133.94-242.025
		C398.083,173.581,394.256,167.083,387.916,164.547z"/>
	<path style="fill:#FDB92C;" d="M241.902,299.137c-3.979,0-7.794-1.58-10.606-4.394l-28.077-28.077
		c-5.858-5.857-5.858-15.355,0-21.213c5.857-5.857,15.355-5.857,21.213,0l17.471,17.471l45.666-45.667
		c5.857-5.857,15.355-5.857,21.213,0s5.858,15.355,0,21.213l-56.272,56.273C249.696,297.557,245.881,299.137,241.902,299.137z"/>
</g>
<path style="fill:#FD8E25;" d="M308.781,217.257c-5.857-5.857-15.355-5.857-21.213,0L256,248.826v42.426l52.781-52.782
	C314.64,232.612,314.64,223.114,308.781,217.257z"/>
<g>
</g>
<g>
</g>
<g>
</g>
<g>
</g>
<g>
</g>
<g>
</g>
<g>
</g>
<g>
</g>
<g>
</g>
<g>
</g>
<g>
</g>
<g>
</g>
<g>
</g>
<g>
</g>
<g>
</g>
</svg>
