<?xml version="1.0" encoding="iso-8859-1"?>
<!-- Generator: Adobe Illustrator 19.0.0, SVG Export Plug-In . SVG Version: 6.00 Build 0)  -->
<svg version="1.1" id="Capa_1" xmlns="http://www.w3.org/2000/svg" xmlns:xlink="http://www.w3.org/1999/xlink" x="0px" y="0px"
	 viewBox="0 0 512 512" style="enable-background:new 0 0 512 512;" xml:space="preserve">
<g>
	<path style="fill:#A485BE;" d="M221.867,477.867H8.533c-4.71,0-8.533-3.814-8.533-8.533c0-4.719,3.823-8.533,8.533-8.533h213.333
		c4.71,0,8.533,3.814,8.533,8.533C230.4,474.052,226.577,477.867,221.867,477.867z"/>
	<path style="fill:#A485BE;" d="M503.467,477.867H290.133c-4.71,0-8.533-3.814-8.533-8.533c0-4.719,3.823-8.533,8.533-8.533h213.333
		c4.71,0,8.533,3.814,8.533,8.533C512,474.052,508.177,477.867,503.467,477.867z"/>
	<path style="fill:#A485BE;" d="M255.991,452.267c-1.869,0-3.755-0.606-5.325-1.869c-3.678-2.953-4.275-8.32-1.331-11.998
		l34.133-42.667c2.944-3.669,8.311-4.275,11.998-1.331c3.678,2.953,4.275,8.32,1.331,11.998l-34.133,42.667
		C260.975,451.166,258.5,452.267,255.991,452.267z"/>
</g>
<rect x="42.667" y="153.6" style="fill:#839594;" width="426.667" height="68.267"/>
<circle style="fill:#FC3952;" cx="256" cy="469.333" r="34.133"/>
<path style="fill:#E7ECED;" d="M475.733,162.133H36.267c-15.317,0-27.733-12.416-27.733-27.733V36.267
	c0-15.317,12.416-27.733,27.733-27.733h439.467c15.317,0,27.733,12.416,27.733,27.733V134.4
	C503.467,149.717,491.051,162.133,475.733,162.133z"/>
<rect x="332.8" y="42.667" style="fill:#839594;" width="136.533" height="85.333"/>
<g>
	<path style="fill:#FFFFFF;" d="M384,93.867h-17.067c-4.71,0-8.533-3.814-8.533-8.533c0-4.719,3.823-8.533,8.533-8.533H384
		c4.71,0,8.533,3.814,8.533,8.533C392.533,90.052,388.71,93.867,384,93.867z"/>
	<path style="fill:#FFFFFF;" d="M435.2,93.867h-17.067c-4.71,0-8.533-3.814-8.533-8.533c0-4.719,3.823-8.533,8.533-8.533H435.2
		c4.71,0,8.533,3.814,8.533,8.533C443.733,90.052,439.91,93.867,435.2,93.867z"/>
</g>
<path style="fill:#DD352E;" d="M42.667,136.533c-4.71,0-8.533-3.814-8.533-8.533V42.667c0-4.719,3.823-8.533,8.533-8.533
	s8.533,3.814,8.533,8.533V128C51.2,132.719,47.377,136.533,42.667,136.533z"/>
<path style="fill:#EBBA16;" d="M76.8,76.8c-4.71,0-8.533-3.814-8.533-8.533v-25.6c0-4.719,3.823-8.533,8.533-8.533
	s8.533,3.814,8.533,8.533v25.6C85.333,72.986,81.51,76.8,76.8,76.8z"/>
<g>
	<path style="fill:#DC691D;" d="M76.8,136.533c-4.71,0-8.533-3.814-8.533-8.533v-25.6c0-4.719,3.823-8.533,8.533-8.533
		s8.533,3.814,8.533,8.533V128C85.333,132.719,81.51,136.533,76.8,136.533z"/>
	<path style="fill:#DC691D;" d="M145.067,76.8c-4.71,0-8.533-3.814-8.533-8.533v-25.6c0-4.719,3.823-8.533,8.533-8.533
		c4.71,0,8.533,3.814,8.533,8.533v25.6C153.6,72.986,149.777,76.8,145.067,76.8z"/>
</g>
<path style="fill:#DD352E;" d="M145.067,136.533c-4.71,0-8.533-3.814-8.533-8.533v-25.6c0-4.719,3.823-8.533,8.533-8.533
	c4.71,0,8.533,3.814,8.533,8.533V128C153.6,132.719,149.777,136.533,145.067,136.533z"/>
<path style="fill:#ED8A19;" d="M110.933,136.533c-4.71,0-8.533-3.814-8.533-8.533V42.667c0-4.719,3.823-8.533,8.533-8.533
	c4.71,0,8.533,3.814,8.533,8.533V128C119.467,132.719,115.644,136.533,110.933,136.533z"/>
<path style="fill:#61B872;" d="M298.667,51.2H179.2c-4.71,0-8.533-3.814-8.533-8.533s3.823-8.533,8.533-8.533h119.467
	c4.71,0,8.533,3.814,8.533,8.533S303.377,51.2,298.667,51.2z"/>
<path style="fill:#1081E0;" d="M298.667,136.533H179.2c-4.71,0-8.533-3.814-8.533-8.533c0-4.719,3.823-8.533,8.533-8.533h119.467
	c4.71,0,8.533,3.814,8.533,8.533C307.2,132.719,303.377,136.533,298.667,136.533z"/>
<path style="fill:#75348B;" d="M196.267,93.867H179.2c-4.71,0-8.533-3.814-8.533-8.533c0-4.719,3.823-8.533,8.533-8.533h17.067
	c4.71,0,8.533,3.814,8.533,8.533C204.8,90.052,200.977,93.867,196.267,93.867z"/>
<path style="fill:#CB465F;" d="M298.667,93.867H281.6c-4.71,0-8.533-3.814-8.533-8.533c0-4.719,3.823-8.533,8.533-8.533h17.067
	c4.71,0,8.533,3.814,8.533,8.533C307.2,90.052,303.377,93.867,298.667,93.867z"/>
<path style="fill:#FC3952;" d="M247.467,93.867H230.4c-4.71,0-8.533-3.814-8.533-8.533c0-4.719,3.823-8.533,8.533-8.533h17.067
	c4.71,0,8.533,3.814,8.533,8.533C256,90.052,252.177,93.867,247.467,93.867z"/>
<path style="fill:#E7ECED;" d="M475.733,366.933H36.267c-15.317,0-27.733-12.416-27.733-27.733v-98.133
	c0-15.317,12.416-27.733,27.733-27.733h439.467c15.317,0,27.733,12.416,27.733,27.733V339.2
	C503.467,354.517,491.051,366.933,475.733,366.933z"/>
<g>
	<path style="fill:#DD352E;" d="M307.2,264.533H187.733c-4.71,0-8.533-3.814-8.533-8.533c0-4.719,3.823-8.533,8.533-8.533H307.2
		c4.71,0,8.533,3.814,8.533,8.533C315.733,260.719,311.91,264.533,307.2,264.533z"/>
	<path style="fill:#DD352E;" d="M307.2,332.8H187.733c-4.71,0-8.533-3.814-8.533-8.533c0-4.719,3.823-8.533,8.533-8.533H307.2
		c4.71,0,8.533,3.814,8.533,8.533C315.733,328.986,311.91,332.8,307.2,332.8z"/>
</g>
<path style="fill:#EBBA16;" d="M204.8,298.667h-17.067c-4.71,0-8.533-3.814-8.533-8.533c0-4.719,3.823-8.533,8.533-8.533H204.8
	c4.71,0,8.533,3.814,8.533,8.533C213.333,294.852,209.51,298.667,204.8,298.667z"/>
<path style="fill:#DC691D;" d="M307.2,298.667h-17.067c-4.71,0-8.533-3.814-8.533-8.533c0-4.719,3.823-8.533,8.533-8.533H307.2
	c4.71,0,8.533,3.814,8.533,8.533C315.733,294.852,311.91,298.667,307.2,298.667z"/>
<path style="fill:#ED8A19;" d="M256,298.667h-17.067c-4.71,0-8.533-3.814-8.533-8.533c0-4.719,3.823-8.533,8.533-8.533H256
	c4.71,0,8.533,3.814,8.533,8.533C264.533,294.852,260.71,298.667,256,298.667z"/>
<path style="fill:#61B872;" d="M366.933,264.533h-17.067c-4.71,0-8.533-3.814-8.533-8.533c0-4.719,3.823-8.533,8.533-8.533h17.067
	c4.71,0,8.533,3.814,8.533,8.533C375.467,260.719,371.644,264.533,366.933,264.533z"/>
<path style="fill:#CB465F;" d="M469.333,264.533h-17.067c-4.71,0-8.533-3.814-8.533-8.533c0-4.719,3.823-8.533,8.533-8.533h17.067
	c4.71,0,8.533,3.814,8.533,8.533C477.867,260.719,474.044,264.533,469.333,264.533z"/>
<path style="fill:#7383BF;" d="M418.133,264.533h-17.067c-4.71,0-8.533-3.814-8.533-8.533c0-4.719,3.823-8.533,8.533-8.533h17.067
	c4.71,0,8.533,3.814,8.533,8.533C426.667,260.719,422.844,264.533,418.133,264.533z"/>
<path style="fill:#75348B;" d="M366.933,298.667h-17.067c-4.71,0-8.533-3.814-8.533-8.533c0-4.719,3.823-8.533,8.533-8.533h17.067
	c4.71,0,8.533,3.814,8.533,8.533C375.467,294.852,371.644,298.667,366.933,298.667z"/>
<path style="fill:#FC3952;" d="M469.333,298.667h-17.067c-4.71,0-8.533-3.814-8.533-8.533c0-4.719,3.823-8.533,8.533-8.533h17.067
	c4.71,0,8.533,3.814,8.533,8.533C477.867,294.852,474.044,298.667,469.333,298.667z"/>
<path style="fill:#ED8A19;" d="M418.133,298.667h-17.067c-4.71,0-8.533-3.814-8.533-8.533c0-4.719,3.823-8.533,8.533-8.533h17.067
	c4.71,0,8.533,3.814,8.533,8.533C426.667,294.852,422.844,298.667,418.133,298.667z"/>
<path style="fill:#1081E0;" d="M366.933,332.8h-17.067c-4.71,0-8.533-3.814-8.533-8.533c0-4.719,3.823-8.533,8.533-8.533h17.067
	c4.71,0,8.533,3.814,8.533,8.533C375.467,328.986,371.644,332.8,366.933,332.8z"/>
<path style="fill:#A485BE;" d="M469.333,332.8h-17.067c-4.71,0-8.533-3.814-8.533-8.533c0-4.719,3.823-8.533,8.533-8.533h17.067
	c4.71,0,8.533,3.814,8.533,8.533C477.867,328.986,474.044,332.8,469.333,332.8z"/>
<path style="fill:#57D8AB;" d="M418.133,332.8h-17.067c-4.71,0-8.533-3.814-8.533-8.533c0-4.719,3.823-8.533,8.533-8.533h17.067
	c4.71,0,8.533,3.814,8.533,8.533C426.667,328.986,422.844,332.8,418.133,332.8z"/>
<rect x="42.667" y="256" style="fill:#839594;" width="102.4" height="68.267"/>
<path style="fill:#FFFFFF;" d="M110.933,298.667H76.8c-4.71,0-8.533-3.814-8.533-8.533c0-4.719,3.823-8.533,8.533-8.533h34.133
	c4.71,0,8.533,3.814,8.533,8.533C119.467,294.852,115.644,298.667,110.933,298.667z"/>
<g>
</g>
<g>
</g>
<g>
</g>
<g>
</g>
<g>
</g>
<g>
</g>
<g>
</g>
<g>
</g>
<g>
</g>
<g>
</g>
<g>
</g>
<g>
</g>
<g>
</g>
<g>
</g>
<g>
</g>
</svg>
